<svg width="17" height="9" viewBox="0 0 17 9" fill="none" xmlns="http://www.w3.org/2000/svg">
<path d="M8.18082 6.53053L14.3657 0.342174C14.5641 0.143415 14.8071 0.0416187 15.0947 0.0367826C15.3824 0.0316928 15.6343 0.13349 15.8505 0.342174C16.0667 0.550602 16.1779 0.798225 16.1843 1.08504C16.1907 1.37185 16.0833 1.62342 15.8623 1.83973L9.09642 8.60948C8.9662 8.74462 8.82504 8.84349 8.67295 8.90609C8.52086 8.9687 8.35682 9 8.18082 9C8.00482 9 7.84078 8.9687 7.68868 8.90609C7.53659 8.84349 7.39302 8.74462 7.25797 8.60948L0.49207 1.83974C0.285806 1.63309 0.18331 1.38394 0.184582 1.09229C0.186108 0.800643 0.294962 0.550603 0.511145 0.342175C0.727329 0.133491 0.976829 0.0291509 1.25965 0.0291509C1.54221 0.0291509 1.78764 0.13349 1.99594 0.342174L8.18082 6.53053Z" fill="white"/>
</svg>
