<svg width="198" height="168" viewBox="0 0 198 168" fill="none" xmlns="http://www.w3.org/2000/svg">
<rect x="81.387" y="73.1613" width="33.871" height="88.0645" fill="#212121"/>
<rect x="0.0966797" width="197.806" height="124.645" rx="5" fill="#212121"/>
<rect x="10.9353" y="10.8387" width="176.129" height="104.323" rx="5" fill="white"/>
<rect x="61.0645" y="154.452" width="74.5161" height="13.5484" rx="5" fill="#212121"/>
<rect x="21.7742" y="79.9355" width="13.5484" height="20.3226" rx="2" fill="#212121"/>
<rect x="23.1289" y="23.0322" width="39.2903" height="4.06452" rx="2" fill="#212121"/>
<rect x="112.548" y="23.0322" width="62.3226" height="2.70968" rx="1.35484" fill="#212121"/>
<rect x="112.548" y="28.4517" width="62.3226" height="2.70968" rx="1.35484" fill="#212121"/>
<rect x="23.1289" y="29.8064" width="62.3226" height="2.70968" rx="1.35484" fill="#212121"/>
<rect x="112.548" y="33.871" width="40.6452" height="2.70968" rx="1.35484" fill="#212121"/>
<rect x="42.0967" y="66.3871" width="13.5484" height="33.871" rx="2" fill="#212121"/>
<rect x="82.7419" y="62.3226" width="13.5484" height="37.9355" rx="2" fill="#212121"/>
<rect x="62.4192" y="73.1613" width="13.5484" height="27.0968" rx="2" fill="#212121"/>
<path d="M21.0985 73.7789C20.6914 74.1521 20.6638 74.7846 21.0369 75.1918C21.4101 75.5989 22.0426 75.6265 22.4498 75.2534L21.0985 73.7789ZM48.5421 49.9849L49.2177 49.2477L48.5421 48.6285L47.8665 49.2477L48.5421 49.9849ZM68.7989 68.5491L68.1233 69.2863L68.7989 69.9055L69.4745 69.2863L68.7989 68.5491ZM97.2894 43.3984C97.3134 42.8467 96.8856 42.3799 96.3339 42.3558L87.3424 41.9638C86.7906 41.9397 86.3239 42.3675 86.2998 42.9193C86.2757 43.471 86.7035 43.9378 87.2553 43.9619L95.2477 44.3103L94.8992 52.3028C94.8752 52.8545 95.3029 53.3213 95.8547 53.3454C96.4065 53.3694 96.8733 52.9416 96.8973 52.3899L97.2894 43.3984ZM22.4498 75.2534L49.2177 50.7222L47.8665 49.2477L21.0985 73.7789L22.4498 75.2534ZM47.8665 50.7222L68.1233 69.2863L69.4745 67.8119L49.2177 49.2477L47.8665 50.7222ZM69.4745 69.2863L96.9659 44.0921L95.6147 42.6176L68.1233 67.8119L69.4745 69.2863Z" fill="#212121"/>
<path d="M161.561 97.7324C157.724 100.514 153.285 102.353 148.606 103.1C143.926 103.846 139.136 103.48 134.623 102.031C130.111 100.582 126.004 98.0905 122.634 94.7583C119.264 91.4261 116.727 87.347 115.227 82.8514C113.727 78.3558 113.307 73.5702 114.001 68.8821C114.695 64.1941 116.484 59.7355 119.222 55.8675C121.961 51.9994 125.571 48.8308 129.762 46.6181C133.953 44.4055 138.606 43.2111 143.345 43.1317L143.85 73.302L161.561 97.7324Z" fill="#212121"/>
<path d="M145.876 43.1516C150.306 43.1308 154.683 44.1227 158.671 46.0514C162.66 47.9801 166.155 50.7947 168.89 54.2802L146.012 72.231L145.876 43.1516Z" fill="#212121"/>
<path d="M170.424 56.3081C172.633 59.1289 174.222 62.3906 175.101 65.907C175.98 69.4234 176.131 73.1257 175.545 76.8025C174.959 80.4792 173.649 84.0584 171.688 87.3358C169.727 90.6131 167.155 93.5244 164.117 95.9033L147.294 74.4237L170.424 56.3081Z" fill="#212121"/>
</svg>
