<svg width="29" height="30" viewBox="0 0 29 30" fill="none" xmlns="http://www.w3.org/2000/svg">
<path d="M12.5175 30C11.8425 30 11.2612 29.775 10.7737 29.325C10.2862 28.875 9.9925 28.325 9.8925 27.675L9.555 25.2C9.23 25.075 8.92375 24.925 8.63625 24.75C8.34875 24.575 8.0675 24.3875 7.7925 24.1875L5.4675 25.1625C4.8425 25.4375 4.2175 25.4625 3.5925 25.2375C2.9675 25.0125 2.48 24.6125 2.13 24.0375L0.3675 20.9625C0.0175 20.3875 -0.0825 19.775 0.0675 19.125C0.2175 18.475 0.555 17.9375 1.08 17.5125L3.0675 16.0125C3.0425 15.8375 3.03 15.6687 3.03 15.5062V14.4937C3.03 14.3312 3.0425 14.1625 3.0675 13.9875L1.08 12.4875C0.555 12.0625 0.2175 11.525 0.0675 10.875C-0.0825 10.225 0.0175 9.6125 0.3675 9.0375L2.13 5.9625C2.48 5.3875 2.9675 4.9875 3.5925 4.7625C4.2175 4.5375 4.8425 4.5625 5.4675 4.8375L7.7925 5.8125C8.0675 5.6125 8.355 5.425 8.655 5.25C8.955 5.075 9.255 4.925 9.555 4.8L9.8925 2.325C9.9925 1.675 10.2862 1.125 10.7737 0.675C11.2612 0.225 11.8425 0 12.5175 0H16.0425C16.7175 0 17.2987 0.225 17.7862 0.675C18.2737 1.125 18.5675 1.675 18.6675 2.325L19.005 4.8C19.33 4.925 19.6362 5.075 19.9237 5.25C20.2112 5.425 20.4925 5.6125 20.7675 5.8125L23.0925 4.8375C23.7175 4.5625 24.3425 4.5375 24.9675 4.7625C25.5925 4.9875 26.08 5.3875 26.43 5.9625L28.1925 9.0375C28.5425 9.6125 28.6425 10.225 28.4925 10.875C28.3425 11.525 28.005 12.0625 27.48 12.4875L25.4925 13.9875C25.5175 14.1625 25.53 14.3312 25.53 14.4937V15.5062C25.53 15.6687 25.505 15.8375 25.455 16.0125L27.4425 17.5125C27.9675 17.9375 28.305 18.475 28.455 19.125C28.605 19.775 28.505 20.3875 28.155 20.9625L26.355 24.0375C26.005 24.6125 25.5175 25.0125 24.8925 25.2375C24.2675 25.4625 23.6425 25.4375 23.0175 25.1625L20.7675 24.1875C20.4925 24.3875 20.205 24.575 19.905 24.75C19.605 24.925 19.305 25.075 19.005 25.2L18.6675 27.675C18.5675 28.325 18.2737 28.875 17.7862 29.325C17.2987 29.775 16.7175 30 16.0425 30H12.5175ZM12.78 27H15.7425L16.2675 23.025C17.0425 22.825 17.7612 22.5312 18.4237 22.1437C19.0862 21.7563 19.6925 21.2875 20.2425 20.7375L23.955 22.275L25.4175 19.725L22.1925 17.2875C22.3175 16.9375 22.405 16.5688 22.455 16.1812C22.505 15.7938 22.53 15.4 22.53 15C22.53 14.6 22.505 14.2062 22.455 13.8187C22.405 13.4312 22.3175 13.0625 22.1925 12.7125L25.4175 10.275L23.955 7.725L20.2425 9.3C19.6925 8.725 19.0862 8.24375 18.4237 7.85625C17.7612 7.46875 17.0425 7.175 16.2675 6.975L15.78 3H12.8175L12.2925 6.975C11.5175 7.175 10.7987 7.46875 10.1362 7.85625C9.47375 8.24375 8.8675 8.7125 8.3175 9.2625L4.605 7.725L3.1425 10.275L6.3675 12.675C6.2425 13.05 6.155 13.425 6.105 13.8C6.055 14.175 6.03 14.575 6.03 15C6.03 15.4 6.055 15.7875 6.105 16.1625C6.155 16.5375 6.2425 16.9125 6.3675 17.2875L3.1425 19.725L4.605 22.275L8.3175 20.7C8.8675 21.275 9.47375 21.7563 10.1362 22.1437C10.7987 22.5312 11.5175 22.825 12.2925 23.025L12.78 27ZM14.355 20.25C15.805 20.25 17.0425 19.7375 18.0675 18.7125C19.0925 17.6875 19.605 16.45 19.605 15C19.605 13.55 19.0925 12.3125 18.0675 11.2875C17.0425 10.2625 15.805 9.75 14.355 9.75C12.88 9.75 11.6362 10.2625 10.6237 11.2875C9.61125 12.3125 9.105 13.55 9.105 15C9.105 16.45 9.61125 17.6875 10.6237 18.7125C11.6362 19.7375 12.88 20.25 14.355 20.25Z" fill="#3E3E3E"/>
</svg>
