<svg width="41" height="40" viewBox="0 0 41 40" fill="none" xmlns="http://www.w3.org/2000/svg">
<circle cx="20.4033" cy="20" r="20" fill="#A8D159"/>
<path d="M20.7548 19.6216C19.4242 19.6216 18.2903 19.1526 17.353 18.2147C16.4156 17.2768 15.947 16.1422 15.947 14.8108C15.947 13.4794 16.4156 12.3448 17.353 11.4069C18.2903 10.469 19.4242 10 20.7548 10C22.0853 10 23.2192 10.469 24.1566 11.4069C25.0939 12.3448 25.5625 13.4794 25.5625 14.8108C25.5625 16.1422 25.0939 17.2768 24.1566 18.2147C23.2192 19.1526 22.0853 19.6216 20.7548 19.6216ZM10.4033 27.9927V27.0232C10.4033 26.3487 10.5837 25.7287 10.9444 25.163C11.3053 24.5974 11.7966 24.1604 12.4182 23.8521C13.7999 23.1852 15.1855 22.6819 16.575 22.3422C17.9642 22.0028 19.3576 21.8331 20.7551 21.8331C22.1524 21.8331 23.5462 22.0028 24.9366 22.3422C26.3268 22.6814 27.7123 23.1846 29.0931 23.8517C29.7142 24.16 30.2051 24.5971 30.5655 25.163C30.926 25.7287 31.1062 26.3486 31.1062 27.0228V27.9927C31.1062 28.5503 30.9112 29.0242 30.5213 29.4144C30.1312 29.8048 29.6574 30 29.1001 30H12.4094C11.8521 30 11.3784 29.8048 10.9882 29.4144C10.5983 29.0242 10.4033 28.5503 10.4033 27.9927ZM12.3822 28.0199H29.1274V27.0267C29.1274 26.7344 29.0444 26.4655 28.8784 26.2199C28.7124 25.9746 28.4835 25.7726 28.1917 25.6138C26.979 25.0203 25.7522 24.5719 24.5112 24.2685C23.27 23.9649 22.0176 23.8131 20.7541 23.8131C19.482 23.8131 18.2275 23.9649 16.9905 24.2685C15.7535 24.5719 14.5317 25.0203 13.3249 25.6138C13.0283 25.7726 12.7971 25.9751 12.6311 26.2214C12.4651 26.4676 12.3822 26.7355 12.3822 27.0249V28.0199ZM20.7548 17.6415C21.5327 17.6415 22.1987 17.3643 22.7527 16.81C23.3067 16.2556 23.5837 15.5892 23.5837 14.8108C23.5837 14.0323 23.3067 13.3659 22.7527 12.8116C22.1987 12.2573 21.5327 11.9801 20.7548 11.9801C19.9768 11.9801 19.3108 12.2573 18.7568 12.8116C18.2028 13.3659 17.9258 14.0323 17.9258 14.8108C17.9258 15.5892 18.2028 16.2556 18.7568 16.81C19.3108 17.3643 19.9768 17.6415 20.7548 17.6415Z" fill="#275749"/>
</svg>
