<svg width="17" height="20" viewBox="0 0 17 20" fill="none" xmlns="http://www.w3.org/2000/svg">
<path d="M1.42991 17.098C1.22318 17.098 1.04755 17.0257 0.903034 16.881C0.758694 16.7364 0.686523 16.5606 0.686523 16.3536C0.686523 16.1465 0.758694 15.97 0.903034 15.824C1.04755 15.6779 1.22318 15.6049 1.42991 15.6049H2.50687V7.83581C2.50687 6.40395 2.95126 5.13663 3.84006 4.03383C4.72886 2.93104 5.86651 2.22124 7.25304 1.90446V1.282C7.25304 0.923591 7.37702 0.620323 7.625 0.372194C7.87297 0.124065 8.17756 0 8.53877 0C8.8998 0 9.20581 0.124065 9.45681 0.372194C9.70762 0.620323 9.83303 0.923591 9.83303 1.282V1.90446C11.221 2.22124 12.3599 2.93104 13.2497 4.03383C14.1396 5.13663 14.5845 6.40395 14.5845 7.83581V15.6049H15.6586C15.8623 15.6049 16.0375 15.6781 16.1844 15.8245C16.3312 15.9707 16.4046 16.1473 16.4046 16.3544C16.4046 16.5614 16.3316 16.7371 16.1854 16.8816C16.0393 17.0258 15.8629 17.098 15.6562 17.098H1.42991ZM8.54117 20C8.01944 20 7.57514 19.8161 7.20824 19.4482C6.84152 19.0802 6.65816 18.6355 6.65816 18.114H10.4279C10.4279 18.6372 10.2439 19.0824 9.87596 19.4493C9.508 19.8164 9.06307 20 8.54117 20ZM3.99898 15.6049H13.0924V7.83581C13.0924 6.58022 12.6475 5.50846 11.7576 4.62054C10.8678 3.73261 9.79544 3.28864 8.54064 3.28864C7.28601 3.28864 6.21537 3.73261 5.3287 4.62054C4.44222 5.50846 3.99898 6.58022 3.99898 7.83581V15.6049Z" fill="white"/>
</svg>
