<svg width="130" height="126" viewBox="0 0 130 126" fill="none" xmlns="http://www.w3.org/2000/svg">
<path d="M65 60.6159C56.6451 60.6159 49.5248 57.6615 43.639 51.7527C37.7533 45.8438 34.8104 38.6956 34.8104 30.3079C34.8104 21.9203 37.7533 14.772 43.639 8.86323C49.5248 2.95441 56.6451 0 65 0C73.3549 0 80.4752 2.95441 86.361 8.86323C92.2467 14.772 95.1896 21.9203 95.1896 30.3079C95.1896 38.6956 92.2467 45.8438 86.361 51.7527C80.4752 57.6615 73.3549 60.6159 65 60.6159ZM0 113.354V107.246C0 102.997 1.13244 99.0908 3.39733 95.5271C5.6637 91.9634 8.74868 89.2103 12.6523 87.268C21.3284 83.0667 30.029 79.8961 38.754 77.7561C47.4775 75.6175 56.2269 74.5483 65.0022 74.5483C73.7761 74.5483 82.5284 75.6175 91.2594 77.7561C99.9888 79.8931 108.689 83.063 117.359 87.2657C121.259 89.2081 124.341 91.9619 126.605 95.5271C128.868 99.0908 130 102.996 130 107.244V113.354C130 116.867 128.776 119.853 126.327 122.311C123.877 124.77 120.903 126 117.403 126H12.5968C9.09729 126 6.12259 124.77 3.67267 122.311C1.22422 119.853 0 116.867 0 113.354ZM12.4258 113.526H117.574V107.268C117.574 105.427 117.053 103.733 116.011 102.186C114.969 100.64 113.531 99.3672 111.699 98.3671C104.084 94.628 96.3805 91.8029 88.5881 89.8917C80.7942 87.9791 72.9301 87.0228 64.9956 87.0228C57.0078 87.0228 49.1303 87.9791 41.363 89.8917C33.5958 91.8029 25.9233 94.628 18.3456 98.3671C16.4833 99.3672 15.0311 100.643 13.989 102.195C12.9469 103.746 12.4258 105.434 12.4258 107.257V113.526ZM65 48.1414C69.885 48.1414 74.0669 46.3952 77.5457 42.9028C81.0244 39.4104 82.7638 35.2121 82.7638 30.3079C82.7638 25.4037 81.0244 21.2054 77.5457 17.7131C74.0669 14.2207 69.885 12.4745 65 12.4745C60.115 12.4745 55.9331 14.2207 52.4543 17.7131C48.9756 21.2054 47.2362 25.4037 47.2362 30.3079C47.2362 35.2121 48.9756 39.4104 52.4543 42.9028C55.9331 46.3952 60.115 48.1414 65 48.1414Z" fill="white"/>
</svg>
