<svg width="25" height="24" viewBox="0 0 25 24" fill="none" xmlns="http://www.w3.org/2000/svg">
<circle cx="12.3369" cy="12" r="11" stroke="white" stroke-width="2"/>
<path d="M11.2354 16.375H12.79V18H11.2354V16.375ZM8.60254 10.1172C8.60254 8.99219 8.92025 8.08854 9.55566 7.40625C10.1911 6.71875 11.0635 6.375 12.1729 6.375C13.1989 6.375 14.0192 6.66927 14.6338 7.25781C15.2536 7.84115 15.5635 8.58854 15.5635 9.5C15.5635 10.0521 15.4489 10.5 15.2197 10.8438C14.9958 11.1875 14.54 11.6927 13.8525 12.3594C13.3525 12.8438 13.027 13.2552 12.876 13.5938C12.7301 13.9271 12.6572 14.4219 12.6572 15.0781H11.2666C11.2666 14.3333 11.3551 13.7344 11.5322 13.2812C11.7093 12.8229 12.0973 12.2995 12.6963 11.7109L13.3213 11.0938C13.5088 10.9167 13.6598 10.7318 13.7744 10.5391C13.9827 10.2005 14.0869 9.84896 14.0869 9.48438C14.0869 8.97396 13.9333 8.53125 13.626 8.15625C13.3239 7.78125 12.8213 7.59375 12.1182 7.59375C11.2484 7.59375 10.6468 7.91667 10.3135 8.5625C10.126 8.92188 10.0192 9.4401 9.99316 10.1172H8.60254Z" fill="white"/>
</svg>
