<svg width="234" height="228" viewBox="0 0 234 228" fill="none" xmlns="http://www.w3.org/2000/svg">
<rect x="186.443" y="17.1064" width="23.0651" height="84.0155" rx="5" transform="rotate(37.2525 186.443 17.1064)" fill="#275749"/>
<rect x="147.431" y="12.6641" width="91.0474" height="36.8055" rx="2.5" transform="rotate(37.2525 147.431 12.6641)" stroke="#275749" stroke-width="5"/>
<rect x="161.011" y="67.0677" width="3.84418" height="57.6627" rx="1.92209" transform="rotate(37.2525 161.011 67.0677)" fill="#275749"/>
<path d="M154.54 126.396C155.419 127.064 156.68 126.897 157.29 125.976C159.166 123.149 160.566 120.029 161.433 116.739C162.469 112.804 162.72 108.703 162.171 104.671C161.623 100.639 160.285 96.754 158.235 93.2386C156.185 89.7233 153.463 86.6461 150.224 84.1827C146.985 81.7194 143.292 79.9182 139.357 78.8819C135.422 77.8457 131.321 77.5947 127.289 78.1433C123.256 78.6919 119.372 80.0293 115.856 82.0792C112.918 83.7928 110.285 85.9762 108.062 88.5387C107.338 89.3729 107.513 90.6325 108.392 91.3011L131.466 108.848L154.54 126.396Z" fill="#275749"/>
<circle cx="126.787" cy="115.237" r="4.61302" transform="rotate(-7.74748 126.787 115.237)" fill="#275749"/>
<path d="M135.455 27.4608L209.509 83.7672" stroke="#275749" stroke-width="5"/>
<path d="M206.467 55.3765L182.118 87.4008" stroke="#275749" stroke-width="5"/>
<path d="M162.402 21.8719L138.052 53.8963" stroke="#275749" stroke-width="5"/>
<path fill-rule="evenodd" clip-rule="evenodd" d="M39.9268 169H38.4975C36.8362 169 35.2834 169.825 34.3538 171.202L1.26587 220.202C-0.976489 223.523 1.4027 228 5.40961 228H11.3234H217.677H223.591C227.597 228 229.977 223.523 227.734 220.202L194.646 171.202C193.717 169.825 192.164 169 190.503 169H189.073H39.9268Z" fill="#275749"/>
<path d="M124 120L104 169" stroke="#275749" stroke-width="5" stroke-dasharray="5 5"/>
</svg>
