<svg width="21" height="20" viewBox="0 0 21 20" fill="none" xmlns="http://www.w3.org/2000/svg">
<path d="M19.3882 20L12.3926 13C11.8374 13.4444 11.1989 13.7963 10.4771 14.0556C9.75538 14.3148 8.98734 14.4444 8.17303 14.4444C6.15578 14.4444 4.44851 13.7454 3.05123 12.3472C1.65396 10.9491 0.955322 9.24074 0.955322 7.22222C0.955322 5.2037 1.65396 3.49537 3.05123 2.09722C4.44851 0.699074 6.15578 0 8.17303 0C10.1903 0 11.8976 0.699074 13.2948 2.09722C14.6921 3.49537 15.3907 5.2037 15.3907 7.22222C15.3907 8.03704 15.2612 8.80556 15.0021 9.52778C14.743 10.25 14.3914 10.8889 13.9472 11.4444L20.9428 18.4444L19.3882 20ZM8.17303 12.2222C9.56106 12.2222 10.7409 11.7361 11.7125 10.7639C12.6841 9.79167 13.1699 8.61111 13.1699 7.22222C13.1699 5.83333 12.6841 4.65278 11.7125 3.68056C10.7409 2.70833 9.56106 2.22222 8.17303 2.22222C6.78501 2.22222 5.60519 2.70833 4.63358 3.68056C3.66196 4.65278 3.17616 5.83333 3.17616 7.22222C3.17616 8.61111 3.66196 9.79167 4.63358 10.7639C5.60519 11.7361 6.78501 12.2222 8.17303 12.2222Z" fill="white"/>
</svg>
