<svg width="22" height="20" viewBox="0 0 22 20" fill="none" xmlns="http://www.w3.org/2000/svg">
<path d="M11.2943 9.62157C9.96376 9.62157 8.82983 9.15262 7.89251 8.21471C6.95519 7.2768 6.48653 6.14216 6.48653 4.81078C6.48653 3.47941 6.95519 2.34477 7.89251 1.40686C8.82983 0.468954 9.96376 0 11.2943 0C12.6249 0 13.7588 0.468954 14.6961 1.40686C15.6334 2.34477 16.1021 3.47941 16.1021 4.81078C16.1021 6.14216 15.6334 7.2768 14.6961 8.21471C13.7588 9.15262 12.6249 9.62157 11.2943 9.62157ZM0.942871 17.9927V17.0232C0.942871 16.3487 1.12322 15.7287 1.48391 15.163C1.84483 14.5974 2.33612 14.1604 2.95778 13.8521C4.33948 13.1852 5.72507 12.6819 7.11455 12.3422C8.5038 12.0028 9.89717 11.8331 11.2947 11.8331C12.6919 11.8331 14.0858 12.0028 15.4762 12.3422C16.8664 12.6814 18.2518 13.1846 19.6326 13.8517C20.2538 14.16 20.7446 14.5971 21.1051 15.163C21.4655 15.7287 21.6457 16.3486 21.6457 17.0228V17.9927C21.6457 18.5503 21.4508 19.0242 21.0609 19.4144C20.6707 19.8048 20.197 20 19.6397 20H2.94894C2.39164 20 1.91791 19.8048 1.52775 19.4144C1.13783 19.0242 0.942871 18.5503 0.942871 17.9927ZM2.92171 18.0199H19.6669V17.0267C19.6669 16.7344 19.5839 16.4655 19.418 16.2199C19.252 15.9746 19.0231 15.7726 18.7312 15.6138C17.5186 15.0203 16.2917 14.5719 15.0508 14.2685C13.8096 13.9649 12.5572 13.8131 11.2936 13.8131C10.0215 13.8131 8.76701 13.9649 7.53005 14.2685C6.2931 14.5719 5.07124 15.0203 3.86446 15.6138C3.56789 15.7726 3.33662 15.9751 3.17066 16.2214C3.0047 16.4676 2.92171 16.7355 2.92171 17.0249V18.0199ZM11.2943 7.64149C12.0723 7.64149 12.7382 7.36432 13.2922 6.80997C13.8462 6.25562 14.1232 5.58923 14.1232 4.81078C14.1232 4.03234 13.8462 3.36594 13.2922 2.8116C12.7382 2.25725 12.0723 1.98008 11.2943 1.98008C10.5164 1.98008 9.85037 2.25725 9.29637 2.8116C8.74237 3.36594 8.46537 4.03234 8.46537 4.81078C8.46537 5.58923 8.74237 6.25562 9.29637 6.80997C9.85037 7.36432 10.5164 7.64149 11.2943 7.64149Z" fill="white"/>
</svg>
